<svg width="64" height="64" viewBox="0 0 64 64" fill="none" xmlns="http://www.w3.org/2000/svg">
<path d="M33.4042 3.79296C34.9133 5.91332 34.7839 7.4124 34.7839 7.4124L33.8438 6.63876L33.0059 5.96402L31.2349 4.47686L29.7071 3.11444C29.7071 3.11444 28.9421 2.42034 28.6474 2.19864C28.3529 1.97695 28.7162 1.1693 29.3688 0.888341C30.0215 0.60739 30.6482 1.12314 30.6482 1.12314C30.6482 1.12314 31.8953 1.67259 33.4042 3.79296Z" fill="#532638"/>
<path d="M37.5571 2.80507C31.1215 6.77707 29.1611 9.55316 26.6719 14.8408C26.6719 14.8408 41.7846 21.0814 43.3814 21.0814C44.9781 21.0814 48.9255 21.0635 52.1916 18.6036C55.4579 16.1439 58.3907 11.301 60.9087 5.67751C55.5736 1.67877 53.6973 0.100496 46.7475 0.00268351C43.0769 0.186756 40.4667 1.15692 37.5571 2.80507Z" fill="#27E62B" fill-opacity="0.75"/>
<path d="M50.3753 3.53458C50.2853 4.64109 49.2159 5.45604 47.9867 5.35479C46.7574 5.25355 45.834 4.27447 45.924 3.16796C46.0141 2.06143 47.0835 1.24649 48.3127 1.34773C49.5419 1.44898 50.4653 2.42806 50.3753 3.53458Z" fill="#F6F4E9"/>
<path d="M15.5918 10.1456C11.0847 13.1274 7.64094 16.6493 5.44197 22.0887C3.24302 27.5282 8.93512 35.4794 16.5574 39.4714C23.9036 42.763 28.0195 43.1119 35.359 42.6641C41.7654 42.0806 46.7109 40.6538 51.4408 36.988C56.1708 33.3224 60.1912 26.1092 57.9445 21.4975C55.6978 16.8858 53.0963 13.5748 48.0115 10.2638C42.9269 6.95283 37.2314 5.41565 31.2202 5.41565C25.0023 5.45014 20.7752 6.71632 15.5918 10.1456Z" fill="#FCF3D8"/>
<path d="M17.5403 11.9046C13.6044 14.3555 10.5968 17.2503 8.67642 21.7211C6.75612 26.192 11.7271 32.7274 18.3835 36.0084C24.7989 38.7139 28.3934 39.0008 34.8029 38.6326C40.3977 38.153 44.7166 36.9803 48.8472 33.9674C52.9778 30.9544 56.489 25.0256 54.5268 21.2352C52.5648 17.4447 50.2929 14.7233 45.8525 12.0018C41.412 9.28054 36.4382 8.01697 31.1886 8.01697C25.7585 8.04531 22.067 9.08614 17.5403 11.9046Z" fill="#E59A63"/>
<path d="M19.6169 15.5315C21.2266 15.243 22.4381 14.4881 22.3229 13.8452C22.2078 13.2024 20.8095 12.9151 19.1998 13.2036C17.5901 13.492 16.3785 14.2469 16.4937 14.8898C16.6089 15.5326 18.0072 15.8199 19.6169 15.5315Z" fill="#401D30"/>
<path d="M44.1057 15.3863C45.7267 15.602 47.1107 15.2521 47.1968 14.6047C47.2829 13.9574 46.0386 13.2577 44.4176 13.042C42.7965 12.8263 41.4126 13.1763 41.3265 13.8236C41.2403 14.471 42.4846 15.1707 44.1057 15.3863Z" fill="#401D30"/>
<path d="M15.5914 32.8493C17.5506 32.8493 19.1389 32.0022 19.1389 30.9573C19.1389 29.9124 17.5506 29.0653 15.5914 29.0653C13.6322 29.0653 12.0439 29.9124 12.0439 30.9573C12.0439 32.0022 13.6322 32.8493 15.5914 32.8493Z" fill="#FB6A76"/>
<path d="M47.9938 32.8493C49.953 32.8493 51.5412 32.0022 51.5412 30.9573C51.5412 29.9124 49.953 29.0653 47.9938 29.0653C46.0345 29.0653 44.4463 29.9124 44.4463 30.9573C44.4463 32.0022 46.0345 32.8493 47.9938 32.8493Z" fill="#FB6A76"/>
<path d="M18.2233 23.2782C19.4378 23.2782 20.4223 22.4333 20.4223 21.3911C20.4223 20.3488 19.4378 19.5039 18.2233 19.5039C17.0089 19.5039 16.0244 20.3488 16.0244 21.3911C16.0244 22.4333 17.0089 23.2782 18.2233 23.2782Z" fill="#F6F4E9"/>
<path d="M42.3454 23.2782C43.5599 23.2782 44.5443 22.4333 44.5443 21.3911C44.5443 20.3488 43.5599 19.5039 42.3454 19.5039C41.131 19.5039 40.1465 20.3488 40.1465 21.3911C40.1465 22.4333 41.131 23.2782 42.3454 23.2782Z" fill="#F6F4E9"/>
<path d="M31.6743 64C47.8704 64 61 50.8704 61 34.6743C61 18.4782 47.8704 5.34863 31.6743 5.34863C15.4782 5.34863 2.34863 18.4782 2.34863 34.6743C2.34863 50.8704 15.4782 64 31.6743 64Z" fill="#BE5133"/>
<path d="M15.5909 9.8732C11.0784 12.8518 7.63052 16.3702 5.42887 21.8039C3.22726 27.2378 8.9263 35.1807 16.5577 39.1685C23.9127 42.4567 28.0337 42.8053 35.3819 42.3579C41.7961 41.775 46.7476 40.3498 51.4831 36.6878C56.2189 33.0259 60.2441 25.8202 57.9947 21.2133C55.7453 16.6064 53.1406 13.2989 48.0498 9.99134C42.959 6.68378 37.2567 5.14819 31.2383 5.14819C25.0128 5.18257 20.7807 6.44761 15.5909 9.8732Z" fill="#FCF3D8"/>
<path d="M17.5403 11.9046C13.6044 14.3555 10.5968 17.2503 8.67642 21.7211C6.75612 26.192 11.7271 32.7274 18.3835 36.0084C24.7989 38.7139 28.3934 39.0008 34.8029 38.6326C40.3977 38.153 44.7166 36.9803 48.8472 33.9674C52.9778 30.9544 56.489 25.0256 54.5268 21.2352C52.5648 17.4447 50.2929 14.7233 45.8525 12.0018C41.412 9.28054 36.4382 8.01697 31.1886 8.01697C25.7585 8.04531 22.067 9.08614 17.5403 11.9046Z" fill="#E59A63"/>
<path d="M19.6169 15.5315C21.2266 15.243 22.4381 14.4881 22.3229 13.8452C22.2078 13.2024 20.8095 12.9151 19.1998 13.2036C17.5901 13.492 16.3785 14.2469 16.4937 14.8898C16.6089 15.5326 18.0072 15.8199 19.6169 15.5315Z" fill="#401D30"/>
<path d="M44.1057 15.3863C45.7267 15.602 47.1107 15.2521 47.1968 14.6047C47.2829 13.9574 46.0386 13.2577 44.4176 13.042C42.7965 12.8263 41.4126 13.1763 41.3265 13.8236C41.2403 14.471 42.4846 15.1707 44.1057 15.3863Z" fill="#401D30"/>
<path d="M15.5914 32.8493C17.5506 32.8493 19.1389 32.0022 19.1389 30.9573C19.1389 29.9124 17.5506 29.0653 15.5914 29.0653C13.6322 29.0653 12.0439 29.9124 12.0439 30.9573C12.0439 32.0022 13.6322 32.8493 15.5914 32.8493Z" fill="#FB6A76"/>
<path d="M47.9938 32.8493C49.953 32.8493 51.5412 32.0022 51.5412 30.9573C51.5412 29.9124 49.953 29.0653 47.9938 29.0653C46.0345 29.0653 44.4463 29.9124 44.4463 30.9573C44.4463 32.0022 46.0345 32.8493 47.9938 32.8493Z" fill="#FB6A76"/>
<path d="M19.6133 28.8288C22.6174 28.8288 25.0527 26.3935 25.0527 23.3894C25.0527 20.3853 22.6174 17.95 19.6133 17.95C16.6092 17.95 14.1738 20.3853 14.1738 23.3894C14.1738 26.3935 16.6092 28.8288 19.6133 28.8288Z" fill="#401D30"/>
<path d="M18.2233 23.2782C19.4378 23.2782 20.4223 22.4333 20.4223 21.3911C20.4223 20.3488 19.4378 19.5039 18.2233 19.5039C17.0089 19.5039 16.0244 20.3488 16.0244 21.3911C16.0244 22.4333 17.0089 23.2782 18.2233 23.2782Z" fill="#F6F4E9"/>
<path d="M43.7363 28.8288C46.7404 28.8288 49.1758 26.3935 49.1758 23.3894C49.1758 20.3853 46.7404 17.95 43.7363 17.95C40.7322 17.95 38.2969 20.3853 38.2969 23.3894C38.2969 26.3935 40.7322 28.8288 43.7363 28.8288Z" fill="#401D30"/>
<path d="M42.3454 23.2782C43.5599 23.2782 44.5443 22.4333 44.5443 21.3911C44.5443 20.3488 43.5599 19.5039 42.3454 19.5039C41.131 19.5039 40.1465 20.3488 40.1465 21.3911C40.1465 22.4333 41.131 23.2782 42.3454 23.2782Z" fill="#F6F4E9"/>
<path d="M29.8696 58.9869C28.9046 58.8637 26.5628 52.2516 27.741 47.2803C28.7819 46.4149 29.3351 46.6899 29.5148 47.7533C28.6018 53.5402 29.582 55.2282 31.4068 58.1593C31.1188 58.9953 30.8345 59.1103 29.8696 58.9869Z" fill="#6A1E23"/>
<path d="M52.8392 42.5597C52.9484 41.49 50.8299 40.5119 50.9472 42.5597C51.0645 44.6074 48.9879 51.68 48.2275 52.7291C47.467 53.7783 48.7004 54.6213 49.8829 53.7933C51.0655 52.9654 52.7299 43.6293 52.8392 42.5597Z" fill="#7A2826"/>
<path d="M13.2275 46.6747C13.4907 45.4299 14.5282 45.2557 14.883 46.32C15.2377 47.3842 16.1988 50.3787 17.9574 53.1783C19.613 55.0704 20.614 55.289 22.3327 56.2529C22.6213 56.8188 22.2145 57.5537 21.7414 57.6718C21.2684 57.7901 19.2582 56.8441 17.8392 55.4251C16.8573 54.2907 16.3012 53.7482 15.356 51.9959C14.347 50.0524 13.8211 48.9327 13.2275 46.6747Z" fill="#6A1E23"/>
<path d="M28.6378 24.378L28.6164 24.3595C28.4103 24.1852 28.0484 24.2038 27.7978 24.3041C27.6929 24.3461 27.6029 24.4183 27.5391 24.5116L27.5278 24.528C27.4557 24.6335 27.417 24.7585 27.417 24.8865V25.0448C27.417 25.3572 27.4766 25.6668 27.5927 25.9569L27.6535 26.109L27.7639 26.3021C28.004 26.7224 28.3161 27.1053 28.6779 27.427C29.0146 27.7262 29.4003 27.9759 29.812 28.1589C30.1064 28.2897 30.4144 28.3877 30.7304 28.4508L30.9722 28.4992C31.2817 28.5611 31.5964 28.5923 31.9119 28.5923H31.93C32.3097 28.5923 32.688 28.5456 33.0564 28.4536C33.3168 28.3885 33.5711 28.3009 33.8163 28.1919L34.0646 28.0816C34.3613 27.9497 34.6372 27.7755 34.8837 27.5642C35.1853 27.3056 35.4384 26.9955 35.6314 26.6482L35.756 26.424C35.872 26.2149 35.9604 25.9915 36.0183 25.7595L36.0897 25.4742C36.1409 25.2694 36.146 25.0556 36.1046 24.8485L36.0762 24.7069C36.0584 24.6177 36.0232 24.5329 35.9728 24.4572C35.8702 24.3034 35.7109 24.1967 35.5297 24.1605L35.4845 24.1514C35.314 24.1173 35.137 24.141 34.9816 24.2188L34.9434 24.2379C34.8169 24.3012 34.7142 24.4037 34.6509 24.5303C34.6372 24.5579 34.6253 24.5865 34.6155 24.6159L34.5757 24.7351C34.5335 24.8619 34.512 24.9946 34.512 25.1282C34.512 25.2299 34.4994 25.3312 34.4749 25.4297L34.4664 25.4631C34.4184 25.6553 34.3325 25.8359 34.2137 25.9944C34.0983 26.1481 33.9542 26.2781 33.7894 26.377L33.6601 26.4546C33.5189 26.5393 33.3689 26.6083 33.2128 26.6603L32.9847 26.7363C32.8206 26.7911 32.6526 26.8328 32.482 26.8612C32.1813 26.9114 31.875 26.9197 31.572 26.886L31.3313 26.8593C31.0877 26.8323 30.8484 26.775 30.6188 26.6889L30.5298 26.6555C30.1928 26.5292 29.8868 26.3321 29.6323 26.0776C29.4185 25.8638 29.2449 25.6133 29.1198 25.338L28.7631 24.5534C28.7331 24.4874 28.6921 24.426 28.6378 24.378Z" fill="#401E2B"/>
</svg>
